<svg width="145" height="53" viewBox="0 0 145 53" fill="none" xmlns="http://www.w3.org/2000/svg">
<path d="M50.8942 7.12596H58.0125C58.3808 7.12596 58.6854 7.24637 58.9262 7.48719C59.1812 7.71384 59.3087 8.01132 59.3087 8.37963C59.3087 8.73377 59.1812 9.02417 58.9262 9.25082C58.6854 9.46331 58.3808 9.56955 58.0125 9.56955H52.0629L52.2541 9.20833V13.3518L52.0841 13.1818H57.0563C57.4246 13.1818 57.7292 13.3022 57.97 13.543C58.225 13.7697 58.3525 14.0672 58.3525 14.4355C58.3525 14.7896 58.225 15.08 57.97 15.3067C57.7292 15.5192 57.4246 15.6254 57.0563 15.6254H52.1479L52.2541 15.4554V19.7476L52.0841 19.5564H58.0125C58.3808 19.5564 58.6854 19.6839 58.9262 19.9389C59.1812 20.1797 59.3087 20.463 59.3087 20.7888C59.3087 21.143 59.1812 21.4334 58.9262 21.66C58.6854 21.8867 58.3808 22 58.0125 22H50.8942C50.5259 22 50.2143 21.8796 49.9593 21.6388C49.7185 21.3838 49.598 21.0721 49.598 20.7038V8.42213C49.598 8.05382 49.7185 7.74926 49.9593 7.50844C50.2143 7.25345 50.5259 7.12596 50.8942 7.12596ZM61.9916 10.632C62.4024 10.632 62.7495 10.8091 63.0328 11.1632L70.1299 19.9814C70.314 20.208 70.4061 20.463 70.4061 20.7463C70.4061 21.1005 70.2715 21.405 70.0024 21.66C69.7332 21.915 69.4357 22.0425 69.1099 22.0425C68.6991 22.0425 68.3521 21.8583 68.0687 21.49L60.9717 12.6719C60.7875 12.4452 60.6955 12.1902 60.6955 11.9069C60.6955 11.5386 60.823 11.234 61.0779 10.9932C61.3471 10.7524 61.6517 10.632 61.9916 10.632ZM62.0129 22.0212C61.7296 22.0212 61.4463 21.915 61.1629 21.7025C60.8938 21.4759 60.7592 21.2067 60.7592 20.8951C60.7592 20.6118 60.8655 20.3426 61.0779 20.0876L64.329 16.1141L65.6039 18.239L63.0328 21.49C62.7637 21.8442 62.4237 22.0212 62.0129 22.0212ZM69.0887 10.632C69.4287 10.632 69.712 10.7524 69.9386 10.9932C70.1794 11.2199 70.2998 11.4819 70.2998 11.7794C70.2998 11.9211 70.2786 12.0627 70.2361 12.2044C70.1936 12.346 70.1157 12.4806 70.0024 12.6081L66.7938 16.5179L65.4552 14.6692L68.0687 11.2057C68.3521 10.8232 68.692 10.632 69.0887 10.632ZM78.2108 10.4195C79.2024 10.4195 80.0878 10.6745 80.8669 11.1844C81.6602 11.6803 82.2835 12.3673 82.7368 13.2456C83.2042 14.1238 83.438 15.1438 83.438 16.3054C83.438 17.467 83.2042 18.494 82.7368 19.3864C82.2835 20.2647 81.6673 20.9588 80.8881 21.4688C80.1232 21.9646 79.2591 22.2125 78.2958 22.2125C77.7292 22.2125 77.198 22.1204 76.7022 21.9363C76.2064 21.7521 75.7672 21.5184 75.3847 21.235C75.0164 20.9517 74.726 20.6684 74.5135 20.3851C74.3152 20.0876 74.2161 19.8397 74.2161 19.6414L74.8748 19.3652V24.9536C74.8748 25.3219 74.7544 25.6264 74.5135 25.8672C74.2727 26.1222 73.9682 26.2497 73.5999 26.2497C73.2315 26.2497 72.927 26.1293 72.6862 25.8885C72.4453 25.6477 72.3249 25.336 72.3249 24.9536V11.9282C72.3249 11.5598 72.4453 11.2553 72.6862 11.0145C72.927 10.7595 73.2315 10.632 73.5999 10.632C73.9682 10.632 74.2727 10.7595 74.5135 11.0145C74.7544 11.2553 74.8748 11.5598 74.8748 11.9282V12.9693L74.5135 12.7781C74.5135 12.5939 74.6127 12.3744 74.811 12.1194C75.0093 11.8502 75.2785 11.5882 75.6185 11.3332C75.9585 11.064 76.348 10.8445 76.7872 10.6745C77.2405 10.5045 77.715 10.4195 78.2108 10.4195ZM77.8921 12.7568C77.2688 12.7568 76.7234 12.9127 76.2559 13.2243C75.7885 13.536 75.4202 13.9609 75.151 14.4992C74.896 15.0234 74.7685 15.6254 74.7685 16.3054C74.7685 16.9712 74.896 17.5803 75.151 18.1328C75.4202 18.671 75.7885 19.096 76.2559 19.4077C76.7234 19.7193 77.2688 19.8751 77.8921 19.8751C78.5154 19.8751 79.0537 19.7193 79.507 19.4077C79.9744 19.096 80.3357 18.671 80.5907 18.1328C80.8598 17.5803 80.9944 16.9712 80.9944 16.3054C80.9944 15.6254 80.8598 15.0234 80.5907 14.4992C80.3357 13.9609 79.9744 13.536 79.507 13.2243C79.0537 12.9127 78.5154 12.7568 77.8921 12.7568ZM88.6424 20.7038C88.6424 21.0721 88.5149 21.3838 88.2599 21.6388C88.0191 21.8796 87.7145 22 87.3462 22C86.9921 22 86.6946 21.8796 86.4538 21.6388C86.213 21.3838 86.0926 21.0721 86.0926 20.7038V7.57218C86.0926 7.20387 86.213 6.89931 86.4538 6.65849C86.7088 6.40351 87.0204 6.27602 87.3887 6.27602C87.757 6.27602 88.0545 6.40351 88.2812 6.65849C88.522 6.89931 88.6424 7.20387 88.6424 7.57218V20.7038ZM102.64 16.3266C102.64 17.4882 102.378 18.5152 101.854 19.4077C101.344 20.2859 100.65 20.973 99.7717 21.4688C98.9076 21.9646 97.9372 22.2125 96.8606 22.2125C95.784 22.2125 94.8066 21.9646 93.9283 21.4688C93.0642 20.973 92.3701 20.2859 91.846 19.4077C91.336 18.5152 91.081 17.4882 91.081 16.3266C91.081 15.165 91.336 14.1451 91.846 13.2668C92.3701 12.3744 93.0642 11.6803 93.9283 11.1844C94.8066 10.6745 95.784 10.4195 96.8606 10.4195C97.9372 10.4195 98.9076 10.6745 99.7717 11.1844C100.65 11.6803 101.344 12.3744 101.854 13.2668C102.378 14.1451 102.64 15.165 102.64 16.3266ZM100.09 16.3266C100.09 15.6042 99.9417 14.9809 99.6442 14.4567C99.3609 13.9184 98.9713 13.5005 98.4755 13.2031C97.9939 12.9056 97.4556 12.7568 96.8606 12.7568C96.2657 12.7568 95.7203 12.9056 95.2245 13.2031C94.7428 13.5005 94.3533 13.9184 94.0558 14.4567C93.7725 14.9809 93.6308 15.6042 93.6308 16.3266C93.6308 17.0349 93.7725 17.6582 94.0558 18.1965C94.3533 18.7206 94.7428 19.1314 95.2245 19.4289C95.7203 19.7264 96.2657 19.8751 96.8606 19.8751C97.4556 19.8751 97.9939 19.7264 98.4755 19.4289C98.9713 19.1314 99.3609 18.7206 99.6442 18.1965C99.9417 17.6582 100.09 17.0349 100.09 16.3266ZM106.359 22C105.991 22 105.686 21.8796 105.446 21.6388C105.205 21.3838 105.084 21.0721 105.084 20.7038V11.9282C105.084 11.5598 105.205 11.2553 105.446 11.0145C105.686 10.7595 105.991 10.632 106.359 10.632C106.728 10.632 107.032 10.7595 107.273 11.0145C107.514 11.2553 107.634 11.5598 107.634 11.9282V13.9255L107.485 12.5019C107.641 12.1619 107.84 11.8644 108.08 11.6094C108.335 11.3403 108.619 11.1207 108.93 10.9507C109.242 10.7666 109.575 10.632 109.929 10.547C110.283 10.462 110.637 10.4195 110.991 10.4195C111.416 10.4195 111.771 10.5399 112.054 10.7807C112.351 11.0215 112.5 11.3049 112.5 11.6307C112.5 12.0981 112.38 12.4381 112.139 12.6506C111.898 12.8489 111.636 12.9481 111.353 12.9481C111.084 12.9481 110.836 12.8985 110.609 12.7993C110.396 12.7002 110.149 12.6506 109.865 12.6506C109.61 12.6506 109.348 12.7144 109.079 12.8418C108.824 12.9552 108.583 13.1393 108.357 13.3943C108.144 13.6493 107.967 13.968 107.825 14.3505C107.698 14.7188 107.634 15.1579 107.634 15.6679V20.7038C107.634 21.0721 107.514 21.3838 107.273 21.6388C107.032 21.8796 106.728 22 106.359 22ZM116.911 20.7038C116.911 21.0721 116.791 21.3838 116.55 21.6388C116.309 21.8796 116.005 22 115.636 22C115.268 22 114.963 21.8796 114.723 21.6388C114.482 21.3838 114.361 21.0721 114.361 20.7038V11.9282C114.361 11.5598 114.482 11.2553 114.723 11.0145C114.963 10.7595 115.268 10.632 115.636 10.632C116.005 10.632 116.309 10.7595 116.55 11.0145C116.791 11.2553 116.911 11.5598 116.911 11.9282V20.7038ZM115.615 9.25082C115.133 9.25082 114.793 9.17291 114.595 9.01709C114.397 8.86127 114.298 8.58503 114.298 8.18839V7.78467C114.298 7.37386 114.404 7.09763 114.616 6.95597C114.843 6.80015 115.183 6.72224 115.636 6.72224C116.132 6.72224 116.479 6.80015 116.677 6.95597C116.876 7.1118 116.975 7.38803 116.975 7.78467V8.18839C116.975 8.5992 116.869 8.88251 116.656 9.03834C116.444 9.18 116.097 9.25082 115.615 9.25082ZM125.821 10.4195C126.87 10.4195 127.663 10.6391 128.201 11.0782C128.754 11.5173 129.129 12.1052 129.327 12.8418C129.54 13.5643 129.646 14.3717 129.646 15.2642V20.7038C129.646 21.0721 129.526 21.3838 129.285 21.6388C129.044 21.8796 128.739 22 128.371 22C128.003 22 127.698 21.8796 127.457 21.6388C127.217 21.3838 127.096 21.0721 127.096 20.7038V15.2642C127.096 14.7967 127.033 14.3788 126.905 14.0105C126.792 13.628 126.579 13.3235 126.268 13.0968C125.956 12.8702 125.51 12.7568 124.929 12.7568C124.362 12.7568 123.881 12.8702 123.484 13.0968C123.102 13.3235 122.804 13.628 122.592 14.0105C122.393 14.3788 122.294 14.7967 122.294 15.2642V20.7038C122.294 21.0721 122.174 21.3838 121.933 21.6388C121.692 21.8796 121.387 22 121.019 22C120.651 22 120.346 21.8796 120.105 21.6388C119.865 21.3838 119.744 21.0721 119.744 20.7038V11.9282C119.744 11.5598 119.865 11.2553 120.105 11.0145C120.346 10.7595 120.651 10.632 121.019 10.632C121.387 10.632 121.692 10.7595 121.933 11.0145C122.174 11.2553 122.294 11.5598 122.294 11.9282V12.8418L121.975 12.7781C122.103 12.5373 122.287 12.2823 122.528 12.0131C122.769 11.7298 123.052 11.4678 123.378 11.2269C123.704 10.9861 124.072 10.7949 124.483 10.6532C124.893 10.4974 125.34 10.4195 125.821 10.4195ZM137.332 10.4195C137.927 10.4195 138.472 10.5116 138.968 10.6957C139.464 10.8799 139.889 11.1136 140.243 11.3969C140.611 11.6803 140.894 11.9706 141.093 12.2681C141.305 12.5514 141.412 12.7923 141.412 12.9906L140.859 13.2668V11.7157C140.859 11.3474 140.979 11.0428 141.22 10.802C141.461 10.547 141.766 10.4195 142.134 10.4195C142.502 10.4195 142.807 10.5399 143.048 10.7807C143.288 11.0215 143.409 11.3332 143.409 11.7157V21.1713C143.409 22.4037 143.14 23.3882 142.601 24.1249C142.077 24.8756 141.383 25.4139 140.519 25.7398C139.655 26.0797 138.727 26.2497 137.736 26.2497C137.452 26.2497 137.084 26.2143 136.631 26.1435C136.177 26.0727 135.745 25.9877 135.334 25.8885C134.924 25.7893 134.612 25.6973 134.399 25.6123C133.975 25.4281 133.677 25.1944 133.507 24.9111C133.351 24.6419 133.323 24.3515 133.422 24.0399C133.55 23.6291 133.755 23.3457 134.038 23.1899C134.322 23.0483 134.619 23.0341 134.931 23.1474C135.072 23.1899 135.306 23.2749 135.632 23.4024C135.958 23.5299 136.312 23.6432 136.694 23.7424C137.091 23.8557 137.438 23.9124 137.736 23.9124C138.798 23.9124 139.584 23.6999 140.094 23.2749C140.604 22.8499 140.859 22.2621 140.859 21.5113V19.6627L141.114 19.8539C141.114 20.038 141.015 20.2647 140.817 20.5338C140.632 20.7888 140.37 21.0438 140.03 21.2988C139.705 21.5538 139.315 21.7733 138.862 21.9575C138.408 22.1275 137.927 22.2125 137.417 22.2125C136.411 22.2125 135.504 21.9646 134.697 21.4688C133.89 20.9588 133.252 20.2647 132.785 19.3864C132.317 18.494 132.083 17.474 132.083 16.3266C132.083 15.165 132.317 14.1451 132.785 13.2668C133.252 12.3744 133.882 11.6803 134.676 11.1844C135.469 10.6745 136.354 10.4195 137.332 10.4195ZM137.736 12.7568C137.098 12.7568 136.539 12.9127 136.057 13.2243C135.575 13.536 135.2 13.9609 134.931 14.4992C134.662 15.0375 134.527 15.6467 134.527 16.3266C134.527 16.9924 134.662 17.5945 134.931 18.1328C135.2 18.671 135.575 19.096 136.057 19.4077C136.539 19.7193 137.098 19.8751 137.736 19.8751C138.387 19.8751 138.954 19.7193 139.435 19.4077C139.917 19.096 140.292 18.671 140.562 18.1328C140.831 17.5945 140.965 16.9924 140.965 16.3266C140.965 15.6467 140.831 15.0375 140.562 14.4992C140.292 13.9609 139.917 13.536 139.435 13.2243C138.954 12.9127 138.387 12.7568 137.736 12.7568Z" fill="#1D1D1D"/>
<path d="M50.6688 47.153C50.6575 47.3004 50.5952 47.425 50.4818 47.527C50.3798 47.629 50.2609 47.68 50.1249 47.68C49.9662 47.68 49.8359 47.629 49.7339 47.527C49.6432 47.425 49.5979 47.3004 49.5979 47.153V36.3077C49.5979 36.1604 49.6489 36.0357 49.7509 35.9338C49.8529 35.8318 49.9832 35.7808 50.1419 35.7808C50.2779 35.7808 50.3968 35.8318 50.4988 35.9338C50.6122 36.0357 50.6688 36.1604 50.6688 36.3077V47.153ZM57.8594 38.7896C58.6073 38.7896 59.2023 38.9426 59.6442 39.2485C60.0976 39.5432 60.4205 39.9512 60.6132 40.4725C60.8172 40.9824 60.9192 41.5491 60.9192 42.1723V47.17C60.9192 47.306 60.8682 47.425 60.7662 47.527C60.6642 47.629 60.5452 47.68 60.4092 47.68C60.2505 47.68 60.1259 47.629 60.0352 47.527C59.9446 47.425 59.8992 47.306 59.8992 47.17V42.2233C59.8992 41.77 59.8256 41.3564 59.6782 40.9824C59.5309 40.6085 59.2873 40.3081 58.9473 40.0815C58.6186 39.8548 58.1823 39.7415 57.6384 39.7415C57.1511 39.7415 56.6864 39.8548 56.2445 40.0815C55.8138 40.3081 55.4625 40.6085 55.1905 40.9824C54.9186 41.3564 54.7826 41.77 54.7826 42.2233V47.17C54.7826 47.306 54.7316 47.425 54.6296 47.527C54.5276 47.629 54.4086 47.68 54.2726 47.68C54.1139 47.68 53.9893 47.629 53.8986 47.527C53.808 47.425 53.7626 47.306 53.7626 47.17V39.5545C53.7626 39.4185 53.808 39.2995 53.8986 39.1975C54.0006 39.0955 54.1253 39.0446 54.2726 39.0446C54.4199 39.0446 54.5389 39.0955 54.6296 39.1975C54.7316 39.2995 54.7826 39.4185 54.7826 39.5545V40.9824L54.3916 41.5944C54.4143 41.2317 54.5276 40.8861 54.7316 40.5575C54.9469 40.2175 55.2189 39.9172 55.5475 39.6565C55.8762 39.3845 56.2388 39.1749 56.6354 39.0276C57.0434 38.8689 57.4514 38.7896 57.8594 38.7896ZM70.8826 35.1008C71.03 35.1008 71.149 35.1518 71.2396 35.2538C71.3416 35.3445 71.3926 35.4634 71.3926 35.6108V47.17C71.3926 47.306 71.3416 47.425 71.2396 47.527C71.1376 47.629 71.0186 47.68 70.8826 47.68C70.7353 47.68 70.6107 47.629 70.5087 47.527C70.418 47.425 70.3727 47.306 70.3727 47.17V45.1472L70.6617 44.9092C70.6617 45.2265 70.5767 45.5608 70.4067 45.9121C70.2367 46.2521 69.993 46.5694 69.6757 46.864C69.3697 47.1587 69.0071 47.3967 68.5878 47.578C68.1798 47.7593 67.7378 47.85 67.2619 47.85C66.5026 47.85 65.817 47.6517 65.205 47.255C64.6044 46.8584 64.1284 46.3201 63.7771 45.6401C63.4258 44.9602 63.2501 44.1839 63.2501 43.3113C63.2501 42.45 63.4258 41.6794 63.7771 40.9994C64.1284 40.3081 64.6044 39.7698 65.205 39.3845C65.8056 38.9879 66.4856 38.7896 67.2449 38.7896C67.7095 38.7896 68.1515 38.8746 68.5708 39.0446C68.9901 39.2145 69.3584 39.4469 69.6757 39.7415C70.0044 40.0362 70.2594 40.3761 70.4407 40.7614C70.6333 41.1354 70.7297 41.5264 70.7297 41.9344L70.3727 41.6794V35.6108C70.3727 35.4748 70.418 35.3558 70.5087 35.2538C70.6107 35.1518 70.7353 35.1008 70.8826 35.1008ZM67.3469 46.898C67.9588 46.898 68.4915 46.7451 68.9448 46.4391C69.4094 46.1218 69.772 45.6968 70.0327 45.1642C70.3047 44.6202 70.4407 44.0026 70.4407 43.3113C70.4407 42.6313 70.3047 42.025 70.0327 41.4924C69.772 40.9484 69.4094 40.5235 68.9448 40.2175C68.4801 39.9002 67.9475 39.7415 67.3469 39.7415C66.7576 39.7415 66.2249 39.9002 65.749 40.2175C65.2843 40.5235 64.916 40.9484 64.644 41.4924C64.3834 42.025 64.2531 42.6313 64.2531 43.3113C64.2531 43.9912 64.3834 44.6032 64.644 45.1472C64.916 45.6911 65.2843 46.1218 65.749 46.4391C66.2249 46.7451 66.7576 46.898 67.3469 46.898ZM75.2249 47.17C75.2249 47.306 75.1739 47.425 75.0719 47.527C74.9699 47.629 74.851 47.68 74.715 47.68C74.5676 47.68 74.443 47.629 74.341 47.527C74.2503 47.425 74.205 47.306 74.205 47.17V39.3505C74.205 39.2145 74.2503 39.0955 74.341 38.9936C74.443 38.8916 74.5676 38.8406 74.715 38.8406C74.8623 38.8406 74.9813 38.8916 75.0719 38.9936C75.1739 39.0955 75.2249 39.2145 75.2249 39.3505V47.17ZM74.715 37.7016C74.477 37.7016 74.2957 37.6506 74.171 37.5486C74.0577 37.4353 74.001 37.2767 74.001 37.0727V36.9027C74.001 36.6987 74.0633 36.5457 74.188 36.4437C74.324 36.3304 74.5053 36.2737 74.732 36.2737C74.9473 36.2737 75.1116 36.3304 75.2249 36.4437C75.3496 36.5457 75.4119 36.6987 75.4119 36.9027V37.0727C75.4119 37.2767 75.3496 37.4353 75.2249 37.5486C75.1116 37.6506 74.9416 37.7016 74.715 37.7016ZM85.167 38.9936C85.3144 38.9936 85.4333 39.0446 85.524 39.1465C85.626 39.2485 85.677 39.3732 85.677 39.5205V47.17C85.677 47.306 85.626 47.425 85.524 47.527C85.422 47.629 85.303 47.68 85.167 47.68C85.0197 47.68 84.895 47.629 84.7931 47.527C84.7024 47.425 84.6571 47.306 84.6571 47.17V45.1472L84.946 45.0112C84.946 45.3285 84.8554 45.6515 84.6741 45.9801C84.5041 46.3087 84.2661 46.6147 83.9601 46.898C83.6541 47.1814 83.2915 47.4137 82.8722 47.595C82.4642 47.765 82.0222 47.85 81.5463 47.85C80.7756 47.85 80.0844 47.6517 79.4724 47.255C78.8718 46.8584 78.3958 46.3144 78.0445 45.6231C77.7045 44.9318 77.5345 44.1556 77.5345 43.2943C77.5345 42.4103 77.7102 41.6341 78.0615 40.9654C78.4128 40.2855 78.8888 39.7528 79.4894 39.3675C80.09 38.9822 80.77 38.7896 81.5293 38.7896C82.0166 38.7896 82.4699 38.8746 82.8892 39.0446C83.3198 39.2145 83.6938 39.4469 84.0111 39.7415C84.3284 40.0362 84.5721 40.3761 84.7421 40.7614C84.9234 41.1354 85.014 41.5264 85.014 41.9344L84.6571 41.6794V39.5205C84.6571 39.3732 84.7024 39.2485 84.7931 39.1465C84.895 39.0446 85.0197 38.9936 85.167 38.9936ZM81.6313 46.898C82.2319 46.898 82.7645 46.7451 83.2292 46.4391C83.6938 46.1218 84.0564 45.6911 84.3171 45.1472C84.5891 44.5919 84.7251 43.9742 84.7251 43.2943C84.7251 42.6257 84.5891 42.025 84.3171 41.4924C84.0564 40.9598 83.6938 40.5348 83.2292 40.2175C82.7645 39.9002 82.2319 39.7415 81.6313 39.7415C81.042 39.7415 80.5093 39.8945 80.0334 40.2005C79.5687 40.5065 79.2004 40.9258 78.9284 41.4584C78.6678 41.991 78.5375 42.603 78.5375 43.2943C78.5375 43.9742 78.6678 44.5919 78.9284 45.1472C79.2004 45.6911 79.5687 46.1218 80.0334 46.4391C80.498 46.7451 81.0306 46.898 81.6313 46.898Z" fill="#1D1D1D"/>
<path d="M21 0C18.6136 0 15.2727 0.415454 13.3636 1.24636V3.38298H5.72727V9.91153H36.2727V3.38298H28.6364V1.24636C26.7273 0.415454 23.3864 0 21 0ZM15.2727 4.80739C16.3227 4.80739 17.1818 5.65729 17.1818 6.70661C17.1818 7.75118 16.3227 8.60582 15.2727 8.60582C14.2227 8.60582 13.3636 7.75118 13.3636 6.70661C13.3636 5.65729 14.2227 4.80739 15.2727 4.80739ZM26.7273 4.80739C27.7773 4.80739 28.6364 5.65729 28.6364 6.70661C28.6364 7.75118 27.7773 8.60582 26.7273 8.60582C25.6773 8.60582 24.8182 7.75118 24.8182 6.70661C24.8182 5.65729 25.6773 4.80739 26.7273 4.80739ZM3.81818 12.0482V14.1848H1.90909V16.3214H40.0909V14.1848H38.1818V12.0482H3.81818ZM0 18.2206V20.3572H42V18.2206H0ZM1.90909 22.4938V31.0403H15.3562C16.3227 24.8679 25.6773 24.8679 26.6437 31.0403H40.0909V22.4938H1.90909ZM1.90909 33.1769V36.738H13.3636V38.8746H1.90909V53H15.2727V33.1769H1.90909ZM26.7273 33.1769V53H40.0909V38.8746H28.6364V36.738H40.0909V33.1769H26.7273Z" fill="#FF5733"/>
</svg>
